<svg id="Rectangle_1_Int_Fond_1_Image" data-name="Rectangle 1 + Int + Fond 1 Image" xmlns="http://www.w3.org/2000/svg" viewBox="0 0 1958.25647 828">
  <defs>
    <style>
      .cls-1 {
        fill: #008473;
      }

      .cls-2 {
        fill: #f4f4f4;
      }
    </style>
  </defs>
  <g id="Background">
    <path class="cls-1" d="M1980.81006,702c-1.41992,0-2.89014.06-4.34009-.01-6.53-.31-13.1499-.12-19.56006-1.16-5.26-.84-10.57983-1.67-15.82983-2.61005-6.66016-1.18994-13.28-2.61-19.76-4.37a192.52126,192.52126,0,0,1-19.38013-6.25,256.08366,256.08366,0,0,1-29.84985-13.65c-6.42017-3.49-12.73023-7.24-18.82007-11.28-6.32007-4.2-12.5-8.68-18.41992-13.44-4.72022-3.79-8.9502-8.19995-13.44019-12.3-1.6499-1.51-2.86987-3.51-5.21-4.32a3.4378,3.4378,0,0,1-2.05005-2.07c-.34985-1.87-1.86987-2.63-2.93994-3.79-4.42993-4.85-9.27-9.37-13.33008-14.51-6.47-8.2-12.73-16.59-18.41992-25.35-2.96-4.55-5.51-9.37-8.15991-14.12a141.25949,141.25949,0,0,1-7.22-13.5c-3.87012-9.07-8.18994-17.93-11.23-27.37-1.26-3.92-2.99024-7.76-4.18018-11.75-1.27978-4.31-2.44995-8.65-3.66992-12.98-.97-3.44-1.62012-6.96-2.6499-10.38995a37.86849,37.86849,0,0,1-1.24024-6.47c-.5498-4.74-2.62988-9.26-2.10986-14.15-1.69995-2.71-.06006-6.04-1.18994-8.5-1.29-2.85-.18018-5.53-.83008-8.17-1.79-7.31-.78-14.73-.93994-22.09-.16992-7.5.06006-15-.08008-22.5-.08984-4.91.97-9.7,1.27-14.57a89.49692,89.49692,0,0,1,1.92993-14.65c.94995-4.09.78-8.47,2.84009-12.29.03-6.72,2.78-12.88,4.15991-19.31,1.38013-6.45,4.1001-12.61005,6.16016-18.92005C1753.99,330.03,1756.45,325.19,1758,320.02a5.3421,5.3421,0,0,1,.3501-.86005c3.40991-7.09,6.61987-14.28,10.2998-21.23,5.03-9.49,10.68018-18.65,16.63013-27.6,3.16992-4.78,7.09009-9.05,10.52-13.66a146.55737,146.55737,0,0,1,15.55005-17.57c1.34985-1.33,2.11987-3.37,3.60986-4.44,4.98-3.6,8.68994-8.54,13.38013-12.37,5.30005-4.32,10.80005-8.42,16.2-12.6,7.87988-6.1,16.55-10.9,24.79-16.38,3.42993-2.28,7.52-3.54,11.24-5.41,3.57983-1.81,7.24-3.44,10.87988-5.1a173.5917,173.5917,0,0,1,21.19995-7.99c4.4502-1.37,8.88013-2.77,13.41016-3.82,2.74-.63,5.46-1.3,8.17993-2,2.72-.69,5.53-.84,8.23-1.83,2.03-.75,4.32007-.38995,6.57007-.98,3.85986-1,8.01-.91,12.04-1.16,6.51-.41,12.97-1.69,19.91992-.82V19H23V164c2.83,0,5.67.09,8.5-.02,5.4-.22,10.69.99,16.06,1.26a80.99308,80.99308,0,0,1,14.16,1.84c9.84,2.28,19.77,4.16,29.41,7.38,6.43,2.16,13.08,4.01,19.19,6.76,7.86,3.53,16.26,6.21,23.14,11.74,7.48,2.91,13.81,7.78,20.48,12.08,3.32,2.14,6.43,4.62,9.6,7.01a253.16981,253.16981,0,0,1,32.29,29.36,205.55112,205.55112,0,0,1,17.47,21.2c3.39,4.77,7.12,9.28,10.16,14.32,2.74,4.54,5.87,8.86,8.4,13.52,3.98,7.32,7.55,14.86,11.38,22.27a175.504,175.504,0,0,1,7.61,17.83,96.13641,96.13641,0,0,1,4.44,13.17c1.29,5.75,3.29,11.31006,4.88,16.99,1.39,4.94,1.9,10.06,3.64,14.95.79,2.21.57,5.02,1.17,7.52a44.35734,44.35734,0,0,1,.99,5.58c.18,1.74-.29,3.57,1.01,5.1.16.19.03.65.02.98-.17,5.38995,1.69,10.66,1,16.07995,1.9,5.94.78,12.05.96,18.08.18,5.99.01,11.99.05,17.99.03,5.55-1.72,10.99-1.01,16.58-1.41,2.39-.46,5.15-1.13,7.55-.71,2.56-.19,5.28-1,7.57-1.94,5.51-1.11,11.61-3.87,16.88.19,5.32-2.44,10.07-3.07,15.25-.24,1.94-1.43,3.74-1.9,5.68-2.26,9.34-5.75,18.29-9.36005,27.12a285.70174,285.70174,0,0,1-13.76,28.27c-4.62,8.47-9.78,16.68-15.13995,24.71-3.46,5.17-7.81,9.74-11.56,14.73-7.64,10.18-16.88,18.84-25.85,27.76-3.12,3.1-6.25,6.35-9.89,8.73-3.45,2.27-6.5,5.02-9.87,7.37-4.02,2.79-7.89,5.9-11.99,8.6-4.53,2.98-9.28,5.65-14.01,8.32-5,2.83-10.03,5.52-15.18,8.05a209.56346,209.56346,0,0,1-21.35,8.79c-4.36,1.58-8.87,2.75-13.28,4.17-3.41,1.09-6.91,1.73-10.31,2.82-4.31,1.39-8.88,1.67-13.27,2.94-3.18.93-6.69.76-10.04,1.13-2.54.28-5.06.7-7.59.98-2.53.28-5.23-.7-7.58,1.01H23V847H1980.45C1981.27,842.78,1981.59009,719.4,1980.81006,702ZM1614,136.6c0,12.82-.12988,25.64.09009,38.46.05981,3.31-1.01,6.34-1.24,9.54-.02.37-.66016.71-1.3501,1.4h-10.01c-8.15991,0-16.32007-.02-24.48.01-2.1001.01-4.19995.13-5.90015-1.77V115.39l1.28028-1.28h39.21972L1613,115.5c-.59009,3.24,1.40991,6.46,1.07007,10.11C1613.74,129.25,1614,132.93,1614,136.6ZM1571.1001,34.4l1.27978-1.28h40.23c1.8501,3.6,1.38013,7.52,1.38013,11.37q.03,21.735.01,43.47c0,2.49.14014,5-.04,7.49-.17993,2.36-.69995,4.7-1.08008,7.16-1.48.48-2.6499.87-4.17993,1.37-.23-.17-.73-.54-1.26-.93-.16992.18-.38989.42-.60986.66a10.41281,10.41281,0,0,0-2.6001.15c-2.07007.45-4.30005.14-6.46.14-5.83008,0-11.66016.01-17.49-.01-.98,0-2.42993.29-2.84009-.22-.92993-1.17-1.51.2-2.22-.03a21.1005,21.1005,0,0,1-2.66992-.78c-.55005-.27-.92017-.94-1.44995-1.52Zm0,162.46a11.88289,11.88289,0,0,1,3.05981-.82c12.48023-.06,24.96021-.04,37.34009-.04.44995.45,1.02.75,1.12012,1.16a35.71124,35.71124,0,0,1,1.31982,6.93006c.16016,7.49.06006,14.99.06006,22.48v36.55c-.52,1.03-.85986,1.72-1.37012,2.74A13.83782,13.83782,0,0,1,1609,266.94c-3.99.16-7.99.06-11.99.06H1572.5l-1.3999-1.4Zm0,82.54a7.63944,7.63944,0,0,1,6-2.43c9.82983.08,19.6499-.03,29.48.08a37.00327,37.00327,0,0,1,6.02,1.04c1.87988,3.65,1.37988,7.57995,1.38989,11.43q.03,21.735.01,43.47c0,2.49.1499,5-.04,7.49-.17993,2.36005-.69995,4.7-1.1001,7.19-1.75.38-3.56982,1.4-4.58984.87-1.84009-.95-3.55-.31-5.29-.5a46.08949,46.08949,0,0,0-4.99-.04H1583.5a37.90839,37.90839,0,0,1-3.99-.03c-1.07007-.12-1.86011.57-3.15991.32-2.86011-.55-2.98-.17-5.25-1.65Zm-948.26,369.72a68.74761,68.74761,0,0,1-6.01,16.46,49.517,49.517,0,0,1-5.64014,8.63995c-2.97,3.68005-6.22,7.16-9.52,10.56006C598,688.56,593.5,691.25,589.05005,694.05a60.85854,60.85854,0,0,1-13.91,6.24c-3.54992,1.15-7.29992,1.65-10.86,2.76-3.51,1.1-7.15.4-10.57007,1.1-3.05994.63-6.12988,1.29-9.09.76-7.44007-1.34-15.02991-1.31994-22.4-3.75A102.61454,102.61454,0,0,1,501.79,692.5c-6.88013-3.78-12.36011-9-17.31006-14.71a69.56554,69.56554,0,0,1-14.5-25.43c-1.63-5.38-3.65991-10.65-3.98-16.34-1.75-2.52-.37-5.48-1.07007-8.06-1.68994-6.17-.52-12.41-.95-18.6a23.40651,23.40651,0,0,1,.96-7.1c.55-2.3-.6499-4.9,1.06006-7.06-.37-3.75,1.07007-7.16,2-10.67.71-2.7.98-5.63,2.2-8.07,1.47-2.92,2.04-6.27,3.9-8.86,1.93-2.7,3.24011-5.74,5.22009-8.35,3.51-4.64,6.79993-9.53,11.28992-13.31a96.56894,96.56894,0,0,1,20.1-12.97c4.78-2.3,9.89-3.5,14.93-4.97,11.07-3.24,22.42005-1.62,33.66-2,6.97,1.57,13.98,2.93,20.72,5.47a59.33044,59.33044,0,0,1,19.3,11.32c1.66992,1.51,3.63989,2.69,5.2,4.28a65.53551,65.53551,0,0,1,14.01,21.17c2.08,5.12,3.98,10.46,4.56995,16.13.20007,2.01,1.21008,3.96.81994,6.11-3.95.74-28.34985.96-42.6499.35A32.202,32.202,0,0,0,570.71,570.27c-3.65991-3.25-8.11-5.02-12.85-6.35a39.99143,39.99143,0,0,0-16.08-.72,36.10225,36.10225,0,0,0-19.34009,8.73c-6.09,5.33-9.09985,12.4-12.29993,19.44-.57995,1.28-.29992,2.69-.87,4.13-1.04,2.58-.97,5.62-1.25,8.48-.4,4.02-1.27,8.1-.9,12.06.78,8.17.94006,16.5,3.88,24.34a45.78014,45.78014,0,0,0,7.28,13.5c5.35,6.5,7.62988,7.73,13.62,10.44a26.80259,26.80259,0,0,0,11.38,2.69c2.65991-.04,5.33-.02,7.99-.01a28.61971,28.61971,0,0,0,20.90991-8.66c3.79-3.72,6.88013-7.85,8.12012-13.14.29-1.22.62988-2.43,1.06995-4.1h42.28C625.05005,643.98,623.38,646.61,622.84009,649.12Zm12.48-168.73c-1.82007,1.38-3.87012-.3-5.57007,1.23-1.40991,1.27-3.56006.33-5.49,1.16-2.33008.99-5.37.9-8,1.03-7.03.34-13.99,1.84-21.08008,1.24-3.13989-.27-6.33.05-9.5-.07-6.68994-.26-13.41992-.38-20.06994-1.13-2.17005-.24-4.37-.68-6.59-.9-2.2-.22-4.27-1.35-6.57007-1-1.59-2.17-4.27-.2-6.30994-1.8-1.42-1.11-3.97009-.69-5.96008-1.18-2.09985-.52-4.12988-1.3-6.17993-1.97a64.2946,64.2946,0,0,1-6.15991-2.03C519.47,471.28,511.11,467.58,503.64,462.17c-5.55993-4.03-10.97009-8.26-15.36-13.51A142.24468,142.24468,0,0,1,477.86,434.03c-4.08-6.4-5.68006-13.68-8.74-20.41-.09-4.31-2.73-8.19-2.12-12.62-2.28-3.07-.54-6.81-1.77-10.25-1.1-3.09-.23-6.89-.23-10.56h69.56006c1.57995,3.26,1.17993,7.15,2.31994,10.78,1.66,5.26,3.02,9.14,5.71009,13.15,5.73,8.54,13.93994,13.68,23.46,16.79a84.59043,84.59043,0,0,0,10.10986,2.25c8.06006,1.55,16.12012.97,24.11011.64a41.16265,41.16265,0,0,0,17.07007-4.5c4.40991-2.27,8.72-4.4,12.12988-8.18,3.37012-3.74,5.18994-7.97,6.74-12.75,1.69995-5.26-.42993-9.61-1.23-14.33a3.64783,3.64783,0,0,0-.65991-1.22,33.17074,33.17074,0,0,0-15.05-12.95,168.33828,168.33828,0,0,0-16.49-6.12c-6.68994-1.99-13.5-3.54-20.2-5.42-3.40015-.95-7.06006-1.5-10.55-2.39-6.48-1.67-13.04-2.98-19.52-4.69-6.01-1.59-11.98-3.21-17.84009-5.27-1.59985-.56-3.07983-1.69-4.68994-1.9-2.78-.35-4.65991-2.46-7.25-3.09-2.62-.64-4.69995-2.39-7.03-3.58a98.64149,98.64149,0,0,1-13.49-8.43c-4.6-3.35-9.29-6.75-12.76-11.24-2.13989-2.76-4.77-5.2-6.41992-8.31-1.58008-2.99-2.64-6.27-4.37012-9.17-1.97-3.29-2.59985-6.97-3.58984-10.52-2.92005-10.53-2-21.39-2.07007-32.15,1.32007-2.32.72-4.99005,1.34009-7.44.57983-2.26.95-4.6,1.7-6.8.8-2.31995,1.84-4.58,2.79-6.84C483.36,225.76,485.95,221.22,492.72,213.76c2.07007-2.28,3.71-5.06,6.08008-6.93C504.51,202.33,509.45,196.72,516.46,194c9.37012-6.97,20.59009-9.8,31.19995-14,5.68018-.46,11.04-2.55,16.7301-3.21,3.21-.37,6.62,0,9.54993-.97,3.46008-1.13,6.78-.59,10.15015-.78,3.31982-.19,6.66992-.04,10-.04,3.32983,0,6.66992-.12,10,.04,2.19995.11,4.38989.65,6.58984.95,2.03.28,4.02-.15,6.16016.84,1.85986.86,4.33984.68,6.52991,1.01a98.0494,98.0494,0,0,1,16.78,4.28c5.67,1.9,11.4,3.8,16.66,6.85a169.61868,169.61868,0,0,1,16.23,10.38A96.87419,96.87419,0,0,1,687.27,213a71.95785,71.95785,0,0,1,11.66992,18.61C701.79,237.98,704.29,244.53,705,251.59c1.98,2.62.61,5.86,1.62,8.81.96008,2.79.21008,6.16.21008,9.58H637.47c-1.99-3.62-1.65991-7.82-3.31995-11.63995a33.94686,33.94686,0,0,0-19.09-18.7,51.75418,51.75418,0,0,0-9.38013-2.77c-8.53992-1.74-17.08984-.61-25.61987-.75a32.18246,32.18246,0,0,0-10.6001,2.06,33.33947,33.33947,0,0,0-9.8999,4.96c-4.65015,3.68-8.62012,8.18-10.31006,14.15a11.15477,11.15477,0,0,0-.24,2.9c-.03,3.66-.01,7.33-.01,11,1.90991,3.44,3.5,7.11,6.51,9.79a43.71221,43.71221,0,0,0,15.25,9.05c2.77.93,5.43994,2.13995,8.23,3.08,3.39,1.16,6.9,1.81,10.32007,2.79,5.37988,1.55,11.09985,1.82,16.31994,4.1,4.24-.47,8.04993,1.61,12.14,2.18,5.49.76,10.75,3,16.18994,4.22a96.3841,96.3841,0,0,1,19.19995,6.78C661.74,317.13,670.5,320.96,677.87,327.24c3.67,3.13,7.72009,5.81,11.14,9.26,4.41992,4.44,7.79,9.58,11.09,14.89,4.62,7.43,7.28,16.64,8.96008,22.81,2.59,9.48,2.19995,19.12,1.75,28.68A51.57913,51.57913,0,0,1,708.63,415.91c-1.29992,4.12006-2.77,8.2-4.11,12.29-2.14,6.54-6.62,11.59-9.74,17.47a10.29923,10.29923,0,0,1-2.09009,2.14c-3.23,3.09-5.90991,6.66-9.37988,9.61-4.27,3.63-9.02,6.44-13.56006,9.61005a65.93607,65.93607,0,0,1-14.53,7.18c-4.76,1.82-9.65991,3.25-14.53,4.77C638.90991,479.53,636.67993,479.36,635.32007,480.39ZM773.87,701.88H734.05005V678.19c-.25-.08-.49-.15-.74-.23a47.55453,47.55453,0,0,0-3.09009,5.4c-.88989,2.08-1.78,4.08-3.6,5.5-1.70008,1.33-1.86,3.93-4.49,4.67-1.74.48-2.69006,2.54-4.48,3.58a50.86213,50.86213,0,0,1-16.04,6.05c-3.76.83-7.41.58-11.11.85-3.26.25-6.30005-.86-9.40991-1.47-4.89014-.97-9.07007-3.82-13.66016-5.61-4.22-4.72-9.6499-8.36-12.46-14.33-1.11-2.38-2.61-4.58-3.77-6.94-1.1-2.23-1.27-4.78-2-7.15a35.302,35.302,0,0,1-1.1499-10.02C647.97,629.5,648,600.51,648,571.09h40.79a7.42352,7.42352,0,0,1,1.15991,2.06994A21.33908,21.33908,0,0,1,690,576.65v71.98a22.02423,22.02423,0,0,0,9.31006,18.1,11.49821,11.49821,0,0,0,5.09,2.09c7.65.63,15.00989.47,21.08-5.65a21.46959,21.46959,0,0,0,6.51-15.84q.045-34.98.01-69.98V572.5l1.33008-1.33h39.33984l1.20008,1.2Zm67.95007.02H800.17993V528.1h41.64014Zm-2.73-224.3c-8.76-2.66-16.89014-6.78-24.92017-11.04A101.94394,101.94394,0,0,1,797.73,455.43c-4.88-3.98-9.05-8.61-13.63989-12.83-6.46009-5.92-11.13013-13.26-16.02-20.39A130.51461,130.51461,0,0,1,761.01,409.65c-3.42993-6.41-5.63-13.33-8.08008-20.15-2-5.57-2.78992-11.44-4.78992-17-.95007-2.64-.76-5.68-1.15-8.54-.28-2.03-.71-4.05-.98-6.08-.24-1.89.6-3.94-.99-5.61-.16-.17-.05005-.65-.02-.98.72-7.41-1.12-14.69-1.03-22.08.09009-6.88,1.63-13.67,1.12012-20.59-.12012-1.63,1.10986-3.22.99-5.09-.1001-1.54-.3501-3.09.47-4.77.73-1.49.11987-3.57.49-5.3,1.07-4.87,2.38989-9.68,3.52-14.53a115.81292,115.81292,0,0,1,5.51-17.22,127.82654,127.82654,0,0,1,7.3999-15.96c3.27-5.72,6.88-11.17,10.57007-16.58a62.05125,62.05125,0,0,1,6.26-7.9c4.47-4.72,9-9.4,13.79993-13.77a93.97777,93.97777,0,0,1,15.70007-11.51c5.06995-2.98,10.35-5.54,15.65991-8.05A149.6779,149.6779,0,0,1,845.03,180.79c4.92993-1.55,10.03-2.13,14.94995-3.65,3.47-1.07,7.42-.46,11.03-1.21,9-1.87,18.07007-.46,27.09-.92a20.67167,20.67167,0,0,1,7.62.91c2.23.72,4.9-.74,7.05005,1.08,4.78-.85,9.08,1.54,13.65991,2.13C930.36,179.65,934.15,181.32,938,182.5c8.9,2.72,17.13,6.95,25.33008,11.27A97.007,97.007,0,0,1,976.74,202.36a106.59763,106.59763,0,0,1,13.98,12.04,153.69,153.69,0,0,1,20.41,26.97c8.49,14.63,10.09,19.66,14.52,33a77.94242,77.94242,0,0,1,3.47,15.11c.53991,4.39,1.26,8.81,2.09,13.14.67,3.43.16,6.84.87012,10.11,1.75,8.18.5199,16.41.8999,24.6.11011,2.32995.72,4.98-.16992,6.92-.98,2.15-.58008,4.12-.79,6.17-.22,2.21.41992,4.49-.94995,6.63-.45007.71-.09009,1.95-.07007,2.95.08008,3.22-.87,6.24-1.78,9.27-.58,1.96.43,4.25-1.22,5.99-.22,5.89-2.81006,11.15-4.43994,16.66-2.59009,8.78-6.68006,16.94-11.04,24.91a148.13424,148.13424,0,0,1-10.18994,15.28,119.03721,119.03721,0,0,1-15.75,17.76c14.84985,18.34,29.57983,36.53,44.44995,54.89H964.43994c-7.67993-9.23-15.28992-18.38-23.10986-27.79-2.76.64-6.01.86005-8.72009,2.19-1.91.94-3.95008.68006-5.82,1.71-1.69006.94-4,.75-6.01,1.15-1.22.24-2.38.72-3.6001.96-1.22.24-2.6499-.46-3.6499.91-.18005.25-.93994.07-1.43005.11-4.02991.33-8.04993.8-12.08.96-4.16.17-8.33008.04-12.5.04-3.67,0-7.33008.03-11-.01-2.23-.03-4.4.13-6.64-.88-1.95007-.88-4.28.01-6.62-.89-2.04-.78-4.64-.77-7.01-1.15A131.06614,131.06614,0,0,1,839.09009,477.6ZM938.63,701.91c-2.39.23-4.56994,1.78-7.07995,1.09-5.26,1.99-10.72.68-16.09009.97-7.09.39-13.68994-1.87994-20.2-4.29a17.933,17.933,0,0,1-5.17993-3.16c-5.70008-4.84-10.24-10.47-12.15015-17.95a56.51469,56.51469,0,0,1-.99-6.1c-1.68994-11.67-.75-23.4-.90991-35.09-.15-11.66-.03-23.31-.03-35.32H859.1V571.91a11.74484,11.74484,0,0,1,2.9801-.87c4.49-.1,8.99-.04,13.91992-.04V543.63c0-1.32-.32007-2.76,2.24-3.54h39.61V571h8.4801c4.16992,0,8.33984-.06,12.5.04a12.70321,12.70321,0,0,1,3.06994.82v29.96H918c0,15.84-.02,31.16.01,46.47.01,6.04-.47,12.12,1.51,18.84,1.16992.97,3.02,2.49,4.74,3.92,4.6-.34,9.06006.84,13.46-1.62.75,2.96,1.45,5.34,1.93994,7.76.54,2.63.80005,5.32,1.37012,7.95.53,2.42,1.42993,4.76,1.93994,7.18.51,2.44.74,4.94,1.13,7.7C942.1,700.74,940.40991,701.74,938.63,701.91Zm150.20008,0H1048.97V678.1c-.23-.06-.46-.11-.68994-.17-.94995,1.71-1.93994,3.4-2.84009,5.14A34.72064,34.72064,0,0,1,1037.02,693.5c-1.39,1.12-2.62,2.45-4.07007,3.48-4.93994,3.48-10.55994,4.98-16.46,6.19a59.76831,59.76831,0,0,1-11.12.8c-5.59.11005-18.72-3.51-22.92005-7.24-4.82995-4.28-9.91992-8.53-12.84-14.6-1.08-2.23-2.62-4.27-3.44007-6.57a32.48427,32.48427,0,0,1-1.92993-7.13c-.31006-2.87-1.26-5.65-1.25-8.56.02-29.48.01-58.96.01-88.87h13.89c4.84,0,9.68006-.18,14.5.05,4.49.22,9.15-1.04,13.61.93v18.28c0,19.5.05005,38.99-.02,58.48-.03,7.74,3.66,13.47,9.42993,18.06a13.22765,13.22765,0,0,0,5.08008,2.14c8.47,2.08,20.09009-2.29,24.42993-9.52a21.77364,21.77364,0,0,0,3.09009-11.2q-.03-35.505-.01-70.99V572.5l1.37-1.37h39.26l1.20008,1.2ZM1198.98,607.55c-3.07007-.25-5.87-1.77-9.01-1.57-1.99.12-4.27.62-5.91992-.13995-1.88013-.86005-3.14014.46-4.76.23-4.12012-.59-7.72,1.36-11.07007,3.32-5.11,3-6.27,4.74-9.22,11.04a29.72442,29.72442,0,0,0-2,8.67v72.69h-41.89V571.19h39.59c.25.27.71.75,1.37012,1.45v22.11c.19995.06.3999.12.60986.19.44007-1.32.86011-2.65,1.32007-3.96,1.55005-4.35,3.6-8.37,7.07007-11.58,3.16992-2.94,5.8999-6.29,10.38989-7.57,1.21-.35,2.41-.58,3.63013-.86005A40.49644,40.49644,0,0,1,1197.77,571c.30005.07.61.13,1.21.25Zm46.66,49.64a18.34608,18.34608,0,0,0,5.31995,9.3c2.27,2.02,4.12012,4.47,7.19006,5.57a28.58922,28.58922,0,0,0,7.69007,1.9,42.89819,42.89819,0,0,0,8.48-.03c4.68994-.63,9.31994-1.61,12.73-5.44,2.02-2.27,4.56995-4.12,5.19995-7.49,5.72,0,11.46-.69,16.97.17,6.8501,1.08,13.68994.47,20.59009.91.8999,4.11-1.20007,7.47-2.41,10.95-1.81994,5.26-5.28,9.65-8.85,13.77-3.76,4.34-8.70007,7.49-13.77,10.1a56.22026,56.22026,0,0,1-14.34009,5.18c-4.21.87-8.41992,1.48-12.6499,2.13a63.00624,63.00624,0,0,1-11.11011.74c-3.02991-.08-6.03992-.79-9.08-.9-3.05994-.11-5.78992-1.57-8.68006-1.91a28.30269,28.30269,0,0,1-8.49-2.5c-4.02991-1.87-8.22-3.6-11.90991-6.36a53.12755,53.12755,0,0,1-4.74-4.07c-1.43994-1.34-4.01-1.57-4.21-4.14-3.58008-3.08-5.84009-7.08-8.21008-11.08a44.28807,44.28807,0,0,1-4.21-9.74c-1.42-4.78-3.74011-9.46-3.15-14.7-2.02-6.61-.55005-13.39-1-20.07-.15-2.27,1.33008-4.19,1.12-6.59-.19007-2.13.5-4.38,1.04992-6.51a37.71335,37.71335,0,0,1,2.11011-6.11c1.82-4.08,3.73-8.12,5.76-12.1a15.11753,15.11753,0,0,1,3-4.23c2.76-2.59,3.92993-6.45,7.66992-8.37,2.49-1.27,4.1001-4.06,6.71-5.54a85.93729,85.93729,0,0,1,19.13013-8.17c9.18994-2.58,18.43994-1.53,27.67993-1.86,3.57007,1.69,7.96.27,11.26,2.99,4.4-.01,8.19995,2.14,11.75,4.14,6.53,3.67,12.57007,8.02,17.04,14.42,2.52,3.62,5.11,7.11,6.96,11.14a90.88384,90.88384,0,0,1,4.92993,14.98c2.51,9.68,1.5,19.37,1.88013,29.24H1244.46C1244.1,649.54,1244.84009,654.31,1245.64,657.19Zm81.65-464.99c-.9,1.63-1.92,3.2-2.82007,4.84-4.02,7.33-8.08,14.64-12.01,22.02-4.13989,7.79-8.40991,15.51-12.59,23.26-3.30994,6.14-6.65,12.27-10.1,18.33-4.43994,7.81-8.6001,15.77-12.9,23.65-3.41,6.25-6.99,12.43-10.42,18.7-3.85986,7.06-7.67993,14.15-11.58,21.18-3.52991,6.38-7.13,12.73-10.64,19.11-3.81006,6.92-7.1499,14.11-11.34,20.78-3.16,5.02-4.96008,10.79-9,15.43V480.89h-72.71008V380.54c-2.03992-3.57-3.62988-6.25-5.11987-8.99-2.51-4.64-4.67-9.47-7.75-13.8-.70007-.98-.8501-2.33-1.47-3.38-3.36011-5.6-6.61011-11.29-9.65015-17.03-3.03-5.73-6.27-11.37006-9.25-17.13-2.34985-4.55-4.54993-9.2-7.55994-13.39a25.84084,25.84084,0,0,1-1.80993-3.74c-4.29-8.59-9.22009-16.82-13.73-25.29-3.41016-6.42-6.96009-12.82-10.61011-19.14-3.93994-6.83-7.32007-13.99-11.28-20.81-3.97-6.83-7.48-13.93006-11.48-20.74005-4.56006-7.75995-8.40991-15.92-13.27-23.53-2.81995-4.4-4.87988-9.29-7.29993-13.98,4.21-.87006,63.36-1.17005,81.59-.44q31.845,62.94,63.52,125.56c2.12.64,3.1499.12,4.05005-1.77,3.17993-6.69,6.62988-13.25,9.93994-19.88,11.07007-22.25,21.74-44.7,33.35-66.67,6.21008-11.76,11.93-23.75,18.22009-35.47a16.14914,16.14914,0,0,0,.69995-1.68h82.06006C1331.87,183.78,1329.59009,188,1327.29,192.2Zm243.8,332.31c.86987-1.62,2.18994-1.53,3.55005-1.52q18.97485.03,37.8999.01c1.91992,3.72,1.44995,7.64,1.44995,11.5q.03,25.485.02,50.97a11.85243,11.85243,0,0,1-2.38013,7.53c-12.23974,0-24.38989.01-36.5498-.01-1.43994,0-3.11011.53-3.99-2Zm.07983-13.36V442.33l1.22022-1.22h39.44995a14.161,14.161,0,0,1,2.08984,7.65c.13013,19.15.09009,38.3.02,57.45,0,1.52-.6499,3.02-1.09985,4.95a45.75349,45.75349,0,0,1-6.02.8q-14.985.135-29.97022,0A42.33878,42.33878,0,0,1,1571.16992,511.15Zm-.06006,176.24,1.22022-1.22H1611.97a18.458,18.458,0,0,1,1.99,7.27q.1051,28.98,0,57.95a18.94528,18.94528,0,0,1-.8999,4.05c-3.31006,1.88-6.88013,1.56-10.41016,1.56q-10.485,0-20.98,0c-3.52978-.01-7.11987.38-10.56006-1.48ZM1614,833.79h-42.85986V768.11c12.11987-2.15,24.15991-.72,36.13989-1.05,1.82007-.05,3.65991.73,5.22,1.07,1.96,3.62,1.49,7.38,1.49,11.08C1614.01,797.33,1614,815.45,1614,833.79Zm-.02-204.16c.1001,8.65.04,17.31.01,25.97-.01,6.35.47,12.74-1.48,19.35-1.27.11-3.11011-.16-4.54,1.05-1.49-1.46-3.09985.74-4.61011-.14-1.76977-1.05-3.3999.62-5.23974.22a26.24431,26.24431,0,0,0-5.47022-.08c-1.82983,0-3.66992.07-5.49-.02-1.72-.08-3.41992-.34-5.80981-.59-1.14014.61-3.01,1.48-4.91016-.33-1.81982,2.38-3.41992-.02-5.28-.26V605.34l1.24-1.24h40.27C1614.77,612.59,1613.87012,621.14,1613.98,629.63Zm-.02-239.27c.16992,10.5.12012,20.99-.02,31.49-.03,2.52-.76,5.03-1.22,7.84-1.53,1.43-3.77,1.34-6.03,1.33-8.15991-.04-16.31982-.02-24.49-.02a56.98581,56.98581,0,0,1-5.99-.05,37.38634,37.38634,0,0,1-5.08984-1.21V360.38l1.21-1.21H1612.77C1614.93994,369.63,1613.80005,380.02,1613.96,390.36Z" transform="translate(-23 -19)"/>
    <path class="cls-1" d="M957,351.87c-1.4,2.03-.96,4.34-1,6.58-2.26,1.53-.25,4.23-1.83008,6.29-1.18994,1.54-.54992,4.36-1.25,6.43a49.60636,49.60636,0,0,1-2.02991,6.14c-3.19006,6.37-5.66,13.17-10.18,18.45-6.30994-7.98-12.6499-16-18.76-23.73H864.11c-.04993.78-.09,1.55-.11,1.84,11.47,15.19,22.69995,30.06,34.14,45.2-.37.47-.85,1.09-1.5,1.93-4.5,0-9.17.41-13.74-.09-8.86-.95-17.55-2.68-25.62-6.87a59.44985,59.44985,0,0,1-18.67-15.09A75.99932,75.99932,0,0,1,825,372.65a99.42607,99.42607,0,0,1-3.21-13.72c-.8501-5.39-1.36011-10.77-1.97-16.17A141.46031,141.46031,0,0,1,819,327.66c-.01-2.32995-.69995-4.99.18994-6.91.99-2.16.58008-4.13.79-6.17.23-2.21.06006-4.36005.8501-6.64.79992-2.3.63989-5,1.02991-7.54,1.37-8.83,6.35-23.31,11.69006-31.71a67.565,67.565,0,0,1,10.78-13.47,58.36627,58.36627,0,0,1,22.10986-12.91c4.26-1.37,8.78-2.87,13.56006-2.39,1.47.16,3.03-.73,4.58008-.88a27.71681,27.71681,0,0,1,4.99-.02c7.88989.63995,15.83984,1.12,23.30993,4.03,5.36,2.09,10.59,4.45,15.1,8.26,1.58008,1.32,3.27,2.57,4.82007,3.97A64.75271,64.75271,0,0,1,948.01,276.97c2.63,5.8,4.99,11.63,6.1499,17.97.34009,1.86.13013,4.07,1.02,5.51,1.13013,1.81.21008,3.63.89014,5.15,1.35986,3,.34985,6.17,1.01,9.1,1.77991,7.84.54992,15.73.88989,23.59C958.16992,342.84,956.28,347.26,957,351.87Z" transform="translate(-23 -19)"/>
    <path class="cls-1" d="M1291.95,622.92h-46.52c-.47-.46-.93994-.93-1.40991-1.4,1.16992-3.99,1.61-8.36005,4.58-11.51,2.20007-2.33,4.22009-4.87,7.2301-6.47,3.23-1.71,7.68994-3.45,11-3.56a26.97791,26.97791,0,0,1,12.12988,2C1286.47,605.32,1292.89,614.63,1291.95,622.92Z" transform="translate(-23 -19)"/>
  </g>
  <g id="Text">
    <path class="cls-2" d="M986.57977,449.86746c14.84766,18.339,29.57819,36.53321,44.44538,54.89624H964.44177c-7.67969-9.23343-15.29083-18.38449-23.11542-27.79223-2.7536.6351-6.00933.85568-8.71563,2.1904-1.91071.94229-3.9494.67361-5.82166,1.71047-1.69366.93787-3.99542.748-6.01129,1.145-1.21374.239-2.37909.72489-3.59308.96158-1.229.2396-2.64978-.46176-3.65552.91605-.18194.24914-.937.06714-1.42559.10715-4.02863.32956-8.05152.79858-12.08667.96075-4.15967.16718-8.33136.03714-12.49774.03714-3.66645,0-7.33332.033-10.99921-.01227-2.23224-.02759-4.399.13355-6.63593-.87594-1.95129-.88059-4.28747.00735-6.62042-.88913-2.0387-.78345-4.6477-.76975-7.01166-1.14811a130.22665,130.22665,0,0,1-17.16229-4.478c-8.75983-2.65668-16.89374-6.77381-24.91852-11.03708a101.822,101.822,0,0,1-16.439-11.13236c-4.88129-3.9739-9.04871-8.60885-13.64588-12.82769-6.45373-5.92264-11.12707-13.25913-16.01928-20.38541a130.8452,130.8452,0,0,1-7.054-12.56046c-3.43134-6.41836-5.62933-13.32928-8.08191-20.1531-2.00134-5.5683-2.78912-11.4361-4.79321-17.004-.95-2.63919-.76074-5.68112-1.14875-8.53226-.277-2.03613-.706-4.05179-.97436-6.08883-.24774-1.88037.59314-3.93814-.99237-5.60474-.16644-.175-.05-.648-.01825-.97827.71136-7.40952-1.127-14.69653-1.03485-22.08515.08581-6.87872,1.62695-13.6632,1.11682-20.59042-.11987-1.6271,1.11566-3.213.99188-5.08423-.10187-1.5397-.35223-3.095.47223-4.77655.72791-1.48443.115-3.56433.49329-5.29391,1.06482-4.86759,2.383-9.67911,3.51269-14.5333a115.8245,115.8245,0,0,1,5.51007-17.21922,129.09217,129.09217,0,0,1,7.402-15.96077c3.27545-5.71524,6.88251-11.16566,10.5672-16.58357a62.98706,62.98706,0,0,1,6.26593-7.89331c4.467-4.71791,8.99823-9.39833,13.79395-13.7753A93.91416,93.91416,0,0,1,809.803,195.99149c5.069-2.98533,10.343-5.54006,15.66077-8.05356a149.82077,149.82077,0,0,1,19.56256-7.14849c4.93689-1.54454,10.03167-2.13305,14.95166-3.64743,3.469-1.06775,7.41882-.46025,11.0271-1.21063,9.00683-1.873,18.07519-.46059,27.09881-.922a20.681,20.681,0,0,1,7.61182.90757c2.233.72708,4.90661-.73906,7.05829,1.083,4.77862-.849,9.07739,1.53568,13.653,2.13478,3.93549.51527,7.72089,2.18747,11.5683,3.36269,8.90607,2.72053,17.13165,6.95054,25.33081,11.27667a96.63389,96.63389,0,0,1,13.416,8.585,105.97281,105.97281,0,0,1,13.97638,12.04041,153.66644,153.66644,0,0,1,20.41534,26.97136c8.48187,14.62422,10.08447,19.66262,14.51569,32.99543a77.92552,77.92552,0,0,1,3.47381,15.1095c.53345,4.39224,1.252,8.81708,2.08991,13.14438.66394,3.429.15973,6.83807.86206,10.11026,1.755,8.17667.52514,16.40817.90808,24.60113.10876,2.32813.71222,4.98295-.16882,6.91419-.9842,2.15738-.58924,4.12848-.7948,6.172-.2229,2.2164.42034,4.4942-.94812,6.6293-.45429.70877-.09113,1.95437-.06806,2.95376.07428,3.21772-.87518,6.23941-1.78033,9.26453-.58783,1.96439.42962,4.251-1.22327,5.99191-.22034,5.8884-2.809,11.15009-4.43835,16.66214-2.5943,8.77658-6.67859,16.94129-11.03754,24.91208a148.96608,148.96608,0,0,1-10.19122,15.28A118.79771,118.79771,0,0,1,986.57977,449.86746Zm-45.87414-54.10721c4.52282-5.28137,6.99566-12.08285,10.1864-18.45169a49.99268,49.99268,0,0,0,2.02618-6.141c.70447-2.06732.06629-4.88345,1.24951-6.42474,1.58136-2.05982-.43127-4.75809,1.83228-6.296.04279-2.238-.39862-4.54947,1-6.58139-.71814-4.60312,1.17194-9.02823.97339-13.57587-.343-7.85663.88513-15.75058-.89185-23.59039-.66443-2.93143.34644-6.09564-1.0086-9.09427-.68714-1.52057.23358-3.34665-.88819-5.15585-.89325-1.44062-.68121-3.65235-1.02166-5.50553a77.48011,77.48011,0,0,0-6.14985-17.97787,64.73637,64.73637,0,0,0-15.21789-21.68244c-1.54578-1.40583-3.23523-2.64987-4.81043-3.97673-4.5177-3.80554-9.74969-6.16853-15.10815-8.25767-7.46313-2.90968-15.41876-3.39209-23.31-4.02944a27.62567,27.62567,0,0,0-4.99145.01827c-1.54547.1571-3.10065,1.0377-4.5788.887-4.77557-.48694-9.3006,1.01817-13.55914,2.38547a58.39268,58.39268,0,0,0-22.10517,12.90791,67.567,67.567,0,0,0-10.78686,13.46843c-5.33734,8.40147-10.3161,22.88011-11.68524,31.70943-.394,2.54116-.23212,5.24621-1.03034,7.54663-.78991,2.27642-.62359,4.42389-.85034,6.63839-.20911,2.04166.2038,4.01078-.79309,6.16983-.88745,1.92212-.19855,4.57779-.18384,6.90955a141.414,141.414,0,0,0,.819,15.09634c.612,5.402,1.11542,10.77893,1.96466,16.17435a99.38666,99.38666,0,0,0,3.21228,13.71478A75.95769,75.95769,0,0,0,838.612,398.95108,59.48468,59.48468,0,0,0,857.28424,414.039c8.061,4.1919,16.75732,5.9173,25.61231,6.87412,4.57513.49435,9.24768.08688,13.7431.08688.654-.84384,1.128-1.45541,1.49628-1.93057-11.43671-15.14273-22.668-30.01352-34.1363-45.19806.0174-.287.06464-1.06424.11206-1.84549h57.83655C928.06134,379.761,934.402,387.784,940.70563,395.76025Z" transform="translate(-23 -19)"/>
    <path class="cls-2" d="M706.82837,269.98239H637.47449c-1.99042-3.62515-1.66547-7.82342-3.32526-11.6472a33.97589,33.97589,0,0,0-19.0918-18.69939,52.51883,52.51883,0,0,0-9.38189-2.76654c-8.53736-1.74141-17.08679-.61329-25.6142-.74536a32.05889,32.05889,0,0,0-10.603,2.05454,33.444,33.444,0,0,0-9.897,4.95855c-4.655,3.6847-8.619,8.182-10.31457,14.14971a11.02685,11.02685,0,0,0-.23664,2.90123c-.02514,3.66647-.01013,7.33322-.00989,10.99972,1.90821,3.4401,3.50171,7.1106,6.50776,9.79645a43.7779,43.7779,0,0,0,15.25012,9.04321c2.77154.93619,5.44189,2.14188,8.22754,3.08753,3.397,1.15323,6.90313,1.80243,10.32409,2.78875,5.37873,1.55069,11.0998,1.81434,16.31531,4.09641,4.24353-.46744,8.051,1.60794,12.14667,2.17828,5.48553.76389,10.74872,2.99707,16.19244,4.2211a96.81578,96.81578,0,0,1,19.194,6.77805c8.57941,3.95688,17.34,7.78036,24.71411,14.06329,3.668,3.12531,7.71534,5.80908,11.14008,9.2551,4.413,4.44043,7.78357,9.587,11.08362,14.89386,4.62176,7.43234,7.27923,16.64325,8.96582,22.81473,2.58838,9.471,2.19781,19.11441,1.75177,28.67965a51.46272,51.46272,0,0,1-2.18347,13.02414c-1.30268,4.12363-2.76923,8.19687-4.10822,12.28693-2.14313,6.54617-6.62018,11.59286-9.74524,17.4733a9.92255,9.92255,0,0,1-2.08752,2.13818c-3.2276,3.09613-5.91223,6.66257-9.37848,9.61047-4.27319,3.63419-9.022,6.44016-13.56091,9.61634a65.9896,65.9896,0,0,1-14.53412,7.17913c-4.75354,1.82029-9.65979,3.24924-14.52509,4.76633-1.78308.556-4.01062.38339-5.37439,1.41611-1.81128,1.37152-3.8612-.30832-5.56408,1.22876-1.40729,1.27032-3.5633.32876-5.49378,1.15167-2.32666.99176-5.36694.90585-7.99927,1.03391-7.02752.34185-13.98791,1.84326-21.08032,1.23608-3.14355-.26913-6.33343.05759-9.49518-.06674-6.698-.26337-13.42059-.38361-20.06982-1.12811-2.171-.24311-4.37293-.68018-6.59717-.90323-2.19446-.22013-4.26941-1.34684-6.56927-1-1.5868-2.16837-4.27021-.19425-6.3111-1.79737-1.41644-1.11261-3.96979-.69345-5.95972-1.18365-2.0943-.516-4.12268-1.29959-6.17984-1.96628a64.19533,64.19533,0,0,1-6.15844-2.02972c-8.36927-3.688-16.73026-7.39042-24.20282-12.80368-5.5542-4.02363-10.96708-8.25309-15.35346-13.51017a140.26856,140.26856,0,0,1-10.42-14.62426c-4.07743-6.40033-5.67926-13.68058-8.74011-20.4104-.096-4.30979-2.732-8.19257-2.12177-12.62107-2.27762-3.07376-.53525-6.81183-1.76727-10.25482C464.12762,387.65756,465,383.86163,465,380.18964h69.55615c1.58539,3.25967,1.18292,7.15051,2.32508,10.77557,1.65918,5.26608,3.023,9.14764,5.70794,13.15164,5.73053,8.546,13.942,13.68064,23.4635,16.78909a83.73621,83.73621,0,0,0,10.10987,2.25477c8.05346,1.55136,16.11847.96621,24.10846.63894a41.10291,41.10291,0,0,0,17.06878-4.503c4.41407-2.26279,8.72309-4.401,12.13025-8.18152,3.36536-3.73416,5.19165-7.96978,6.74011-12.74884,1.7038-5.25857-.4284-9.60559-1.23046-14.32193a3.61392,3.61392,0,0,0-.6615-1.22015,33.14926,33.14926,0,0,0-15.04456-12.957,168.2907,168.2907,0,0,0-16.49585-6.11447c-6.68506-1.9939-13.49573-3.539-20.19958-5.42-3.39948-.95376-7.06263-1.50076-10.54377-2.397-6.48-1.6683-13.04358-2.97568-19.52038-4.68774-6.01148-1.58908-11.98834-3.20514-17.84815-5.26422-1.59457-.56031-3.072-1.694-4.68789-1.9-2.77307-.3536-4.66272-2.4646-7.24362-3.09619-2.62391-.64212-4.70286-2.39-7.0311-3.57288a99.32143,99.32143,0,0,1-13.48966-8.43066c-4.60226-3.35358-9.28909-6.74927-12.76767-11.24521-2.13632-2.76117-4.766-5.19757-6.41171-8.30615-1.58408-2.99228-2.6467-6.27667-4.37476-9.17236-1.9656-3.29386-2.603-6.97535-3.58477-10.51642-2.92185-10.53882-2.00324-21.38989-2.07471-32.1507,1.31714-2.32329.71625-4.99257,1.34225-7.443.57859-2.26477.94562-4.59784,1.702-6.799.79785-2.322,1.832-4.582,2.78479-6.84415,4.52759-10.75012,7.12137-15.29009,13.89377-22.749,2.06827-2.27794,3.71008-5.05362,6.08154-6.92377,5.709-4.50209,10.64908-10.11017,17.65479-12.83423,9.3681-6.967,20.59124-9.79984,31.20086-14,5.68256-.45923,11.04016-2.54688,16.73322-3.20726,3.20465-.37173,6.61493-.00273,9.55163-.96939,3.45557-1.13744,6.77784-.59389,10.14612-.7827,3.32288-.18625,6.66443-.04065,9.99774-.04065s6.67255-.12088,9.99787.04265c2.2063.10847,4.38934.64738,6.58874.95053,2.03809.28088,4.024-.15793,6.16388.83682,1.859.86417,4.33759.681,6.53089,1.00749a98.16161,98.16161,0,0,1,16.77972,4.27918c5.66949,1.90436,11.40253,3.80365,16.658,6.8517a167.41232,167.41232,0,0,1,16.22839,10.38376,96.62185,96.62185,0,0,1,14.23468,13.64874,72.13286,72.13286,0,0,1,11.67072,18.60976c2.84753,6.37289,5.34869,12.921,6.05847,19.97514,1.97919,2.62775.61078,5.86069,1.62292,8.81305C707.57935,263.18884,706.82837,266.56421,706.82837,269.98239Z" transform="translate(-23 -19)"/>
    <path class="cls-2" d="M1151.179,380.53909c-2.036-3.56891-3.63135-6.25122-5.11609-8.99331-2.51184-4.63916-4.67163-9.469-7.75574-13.79551-.69678-.97741-.843-2.33218-1.46961-3.37719-3.35632-5.59854-6.60961-11.29212-9.64733-17.02939-3.035-5.73172-6.26844-11.37216-9.25269-17.13846-2.3501-4.54108-4.54358-9.197-7.56177-13.38348a26.43441,26.43441,0,0,1-1.80346-3.74289c-4.29053-8.584-9.22706-16.82114-13.73194-25.29282-3.41345-6.41914-6.9613-12.81406-10.60888-19.13183-3.94373-6.831-7.32129-13.9894-11.28284-20.80929-3.97278-6.8394-7.474-13.93778-11.47388-20.74113-4.566-7.76628-8.41553-15.92133-13.27832-23.53015-2.81531-4.40512-4.8811-9.28923-7.2962-13.98114,4.21435-.87467,63.36419-1.17671,81.59088-.44425q31.84076,62.94132,63.521,125.56525c2.11548.639,3.152.11472,4.04749-1.76907,3.18079-6.69159,6.63245-13.25382,9.93579-19.88791,11.07593-22.24379,21.74964-44.69937,33.35-66.6659,6.21-11.75946,11.939-23.75535,18.22265-35.46926a18.11456,18.11456,0,0,0,.70337-1.67759h82.0575c-2.46338,4.53925-4.73389,8.75821-7.041,12.957-.89783,1.63414-1.91748,3.20136-2.81421,4.836-4.02234,7.33161-8.08459,14.64231-12.00964,22.0259-4.13916,7.7865-8.41345,15.5034-12.59815,23.262-3.30676,6.1308-6.64587,12.26673-10.09216,18.32877-4.44067,7.811-8.606,15.76341-12.90246,23.64516-3.41028,6.256-6.9917,12.435-10.41748,18.69683-3.8639,7.06238-7.67981,14.15506-11.58033,21.18921-3.53308,6.37177-7.131,12.72095-10.645,19.10984-3.80346,6.91546-7.14917,14.1094-11.34008,20.77615-3.15625,5.02078-4.95789,10.7879-9.00232,15.42816v101.396h-72.707Z" transform="translate(-23 -19)"/>
    <path class="cls-2" d="M581.36926,641.09705h42.27753c1.40643,2.88739-.26935,5.50964-.803,8.01831a68.76477,68.76477,0,0,1-6.01489,16.46087,48.873,48.873,0,0,1-5.64185,8.642c-2.97119,3.682-6.215,7.15912-9.51269,10.55853-3.67273,3.786-8.17774,6.4776-12.62134,9.27765a61.35967,61.35967,0,0,1-13.91431,6.23731c-3.54388,1.15326-7.30078,1.645-10.86041,2.75873-3.50488,1.09655-7.14709.39935-10.56378,1.10327-3.06409.63128-6.13934,1.28418-9.09528.75225-7.44238-1.33947-15.03183-1.31213-22.401-3.74127-9.09164-2.99682-13.41238-4.81317-20.42911-8.66638-6.87478-3.77527-12.35571-9.00244-17.30844-14.71155a69.586,69.586,0,0,1-14.503-25.43054c-1.62811-5.37939-3.65909-10.647-3.97769-16.34-1.74927-2.5185-.36688-5.4798-1.07358-8.06092-1.689-6.16894-.51956-12.40808-.94382-18.59417a23.32538,23.32538,0,0,1,.95524-7.09766c.54968-2.30213-.65186-4.90119,1.06216-7.06677-.369-3.74927,1.07483-7.158,1.99744-10.6659.71157-2.70556.98077-5.62732,2.2063-8.07208,1.462-2.91656,2.04071-6.26984,3.89428-8.861,1.929-2.69666,3.24423-5.74158,5.21854-8.34943,3.51318-4.64062,6.79965-9.53076,11.29538-13.304a96.32043,96.32043,0,0,1,20.09872-12.97c4.77814-2.30883,9.89112-3.507,14.93079-4.97824,11.068-3.231,22.41885-1.61984,33.65359-1.996,6.97229,1.5722,13.986,2.9321,20.72193,5.46564a59.43985,59.43985,0,0,1,19.30273,11.32763c1.66535,1.50342,3.63715,2.68714,5.19965,4.28095A65.36262,65.36262,0,0,1,618.531,568.23859c2.07922,5.1203,3.978,10.45764,4.56494,16.13012.20819,2.01142,1.21832,3.95826.82672,6.10669-3.957.74793-28.349.96326-42.652.35926a32.16689,32.16689,0,0,0-10.56012-20.56018c-3.65717-3.25861-8.1084-5.02729-12.85327-6.35657a39.98682,39.98682,0,0,0-16.07343-.71839,36.10909,36.10909,0,0,0-19.3442,8.734c-6.09421,5.32776-9.10209,12.39343-12.29529,19.43714-.58023,1.27984-.3,2.688-.87879,4.13061-1.03457,2.57861-.97046,5.61719-1.25024,8.47473-.39362,4.02045-1.26956,8.10706-.89264,12.06574.77817,8.17267.93985,16.49475,3.87769,24.34027a45.827,45.827,0,0,0,7.2752,13.50165c5.35779,6.49963,7.6362,7.72436,13.62244,10.4356a26.70254,26.70254,0,0,0,11.38065,2.68738c2.66473-.035,5.33038-.02,7.99548-.00409a28.60322,28.60322,0,0,0,20.90423-8.663c3.79664-3.722,6.88422-7.8468,8.12458-13.13684C580.58923,643.98151,580.93182,642.7735,581.36926,641.09705Z" transform="translate(-23 -19)"/>
    <path class="cls-2" d="M648,571.095h40.78638a7.11156,7.11156,0,0,1,1.16205,2.06055A20.90423,20.90423,0,0,1,690,576.64575q0,35.99029.00153,71.98059a22.05258,22.05258,0,0,0,9.30627,18.1059,11.52031,11.52031,0,0,0,5.0968,2.08282c7.643.63745,15.00751.47956,21.07538-5.64312a21.46216,21.46216,0,0,0,6.5072-15.83832q.04761-34.99063.01282-69.9812v-4.8526c.45673-.45679.81018-.81024,1.33173-1.33173H772.668l1.20569,1.20569v129.5025H734.05017V678.18994l-.7373-.23a48.92883,48.92883,0,0,0-3.09638,5.39734c-.88348,2.0816-1.77875,4.087-3.59405,5.50183-1.70478,1.32868-1.86426,3.9339-4.49195,4.66724-1.737.48468-2.69244,2.54681-4.47809,3.5852a50.68038,50.68038,0,0,1-16.03906,6.04944c-3.761.83057-7.41675.57831-11.11725.85266-3.25909.24164-6.29864-.8623-9.40283-1.47528-4.894-.96649-9.07037-3.82287-13.66284-5.608-4.21912-4.71643-9.65491-8.35742-12.45673-14.33362-1.11554-2.37927-2.61651-4.5758-3.77514-6.93738-1.09583-2.23376-1.27185-4.77942-1.99445-7.15307a35.10772,35.10772,0,0,1-1.15777-10.0152C647.96582,629.49872,648,600.50586,648,571.095Z" transform="translate(-23 -19)"/>
    <path class="cls-2" d="M1088.8269,701.90851h-39.86108V678.103l-.69043-.17584c-.94727,1.71307-1.93249,3.40631-2.83392,5.14312a34.803,34.803,0,0,1-8.42261,10.42658c-1.38928,1.11938-2.61481,2.45764-4.06689,3.48047-4.94416,3.4826-10.56348,4.98724-16.45789,6.1969a60.096,60.096,0,0,1-11.11914.79388c-5.5979.11407-18.7251-3.50555-22.92865-7.23523-4.8302-4.28564-9.9187-8.5365-12.84125-14.603-1.07348-2.22839-2.61676-4.265-3.43951-6.56988a32.7409,32.7409,0,0,1-1.93036-7.13025c-.30506-2.87457-1.251-5.6463-1.24884-8.55841C963.00867,630.38947,963,600.90765,963,571h13.894c4.832,0,9.67279-.18024,14.49353.05261,4.49134.21692,9.15143-1.04193,13.61243.92426v18.28338c0,19.49475.0451,38.98969-.02234,58.4842-.02679,7.73584,3.66211,13.47,9.43054,18.05749a13.37209,13.37209,0,0,0,5.08283,2.13989c8.46679,2.07874,20.0932-2.29205,24.42578-9.52258a21.70492,21.70492,0,0,0,3.09283-11.20416q-.02948-35.49042-.00964-70.9809v-4.73425c.54041-.54053.8938-.894,1.37329-1.3736h39.25305c.32056.32056.67408.674,1.20056,1.20038Z" transform="translate(-23 -19)"/>
    <path class="cls-2" d="M1331.04932,646.90625h-86.58777c-.35987,2.63745.37842,7.39948,1.17456,10.27911a18.32934,18.32934,0,0,0,5.32092,9.30286c2.27588,2.01831,4.12,4.47424,7.19617,5.57129a28.5156,28.5156,0,0,0,7.68884,1.89947,43.13061,43.13061,0,0,0,8.48157-.02758c4.68518-.63117,9.31482-1.611,12.72754-5.44336,2.01928-2.26758,4.5719-4.114,5.20068-7.488,5.71411,0,11.46179-.6897,16.96509.17487,6.85681,1.07714,13.68945.468,20.59265.90087.89563,4.1175-1.20422,7.47413-2.40613,10.94983-1.82129,5.26691-5.28174,9.65686-8.85656,13.77808-3.7616,4.33679-8.69581,7.48987-13.76246,10.09705a56.39447,56.39447,0,0,1-14.34826,5.18072c-4.2074.87311-8.41785,1.48029-12.64637,2.12561a63.12908,63.12908,0,0,1-11.10729.73993c-3.03235-.07312-6.04725-.79114-9.0813-.89728-3.06153-.10711-5.7887-1.56482-8.6792-1.91089a28.52316,28.52316,0,0,1-8.49048-2.4945c-4.03247-1.87146-8.22193-3.60785-11.91431-6.361a55.3437,55.3437,0,0,1-4.73974-4.07221c-1.43287-1.34259-4.00281-1.56628-4.21045-4.14416-3.5741-3.07532-5.83789-7.07306-8.204-11.07642a43.63745,43.63745,0,0,1-4.21131-9.74316c-1.4187-4.774-3.739-9.462-3.15173-14.69989-2.01843-6.606-.5542-13.38556-.9989-20.07-.15051-2.26538,1.33057-4.19055,1.11743-6.59076-.18872-2.12543.50244-4.37445,1.04846-6.50665a38.43055,38.43055,0,0,1,2.10938-6.114q2.73065-6.11791,5.75964-12.10052a15.36292,15.36292,0,0,1,3.00452-4.22834c2.75647-2.58789,3.93347-6.44793,7.67236-8.36529,2.4834-1.27344,4.09326-4.063,6.70776-5.54a85.77337,85.77337,0,0,1,19.12464-8.17053c9.19433-2.58118,18.44763-1.53162,27.68847-1.86139,3.56763,1.68683,7.96.26611,11.25318,2.98688,4.39844-.00635,8.19873,2.14673,11.75354,4.14428,6.52514,3.66669,12.56811,8.0149,17.035,14.4217,2.52527,3.62158,5.11621,7.10278,6.96131,11.1416a89.81954,89.81954,0,0,1,4.92895,14.972C1331.68066,627.34613,1330.66528,637.04181,1331.04932,646.90625Zm-39.09778-23.98163c.93847-8.29455-5.48194-17.607-12.9895-20.9472a26.98512,26.98512,0,0,0-12.13172-1.99585c-3.31445.10681-7.77466,1.84631-10.9956,3.5553-3.01734,1.60113-5.03333,4.14331-7.23316,6.4757-2.97119,3.15009-3.4126,7.51911-4.5852,11.50367q.70422.7044,1.40881,1.40838Z" transform="translate(-23 -19)"/>
    <path class="cls-2" d="M918,601.8233c0,15.84119-.019,31.15345.00958,46.46564.01123,6.04285-.46759,12.11859,1.51013,18.84,1.16895.96673,3.01752,2.4956,4.7403,3.92047,4.60315-.33924,9.06238.84381,13.45892-1.62177.752,2.96424,1.44721,5.34418,1.945,7.76471.541,2.63068.7962,5.32129,1.366,7.94452.52582,2.421,1.42785,4.76111,1.93524,7.18488.51111,2.44171.74011,4.9425,1.132,7.69329-1.99426.72492-3.69171,1.721-5.46973,1.89521-2.39136.23431-4.57037,1.77929-7.07654,1.08978-5.25866,1.9884-10.723.68286-16.08618.9743-7.09729.38562-13.69708-1.887-20.20935-4.29669A17.80185,17.80185,0,0,1,890.083,696.517c-5.69989-4.8374-10.24414-10.46381-12.1565-17.95172A57.05636,57.05636,0,0,1,876.938,672.47c-1.68982-11.67071-.75275-23.39563-.90479-35.09295C875.88171,625.72479,876,614.069,876,602.06171H859.10425V571.90552a11.60825,11.60825,0,0,1,2.97839-.863C866.57239,570.94373,871.06549,571,876,571v-4.37354q0-11.49928.00079-22.99859c.00031-1.31745-.321-2.76221,2.23639-3.53967H917.8515V571h8.47992c4.16638,0,8.33411-.0556,12.49829.03925a13.18633,13.18633,0,0,1,3.06745.8161V601.8233Z" transform="translate(-23 -19)"/>
    <path class="cls-2" d="M841.82458,701.90363H800.17542V528.09637h41.64916Z" transform="translate(-23 -19)"/>
    <path class="cls-2" d="M1198.978,571.24945v36.303c-3.06311-.24933-5.86988-1.76813-9.00574-1.57532-1.99243.12244-4.27551.62415-5.92517-.13617-1.87427-.86365-3.13757.4588-4.75427.22724-4.12464-.59082-7.72718,1.3623-11.07276,3.32354-5.1134,2.9975-6.27453,4.74164-9.22021,11.04114a29.64988,29.64988,0,0,0-1.99927,8.67127q-.00147,33.74871-.00061,67.49743v5.18427h-41.88892V571.18616h39.59009c.25379.26983.70886.75372,1.36963,1.45642v22.10864l.605.1853c.44141-1.31921.86206-2.64581,1.32813-3.95623,1.5476-4.35114,3.59155-8.37433,7.064-11.585,3.16956-2.93048,5.90137-6.2818,10.396-7.5672,1.20361-.34411,2.40942-.57812,3.62964-.85662a40.551,40.551,0,0,1,18.67773.02679C1198.07483,571.07489,1198.38464,571.12683,1198.978,571.24945Z" transform="translate(-23 -19)"/>
  </g>
  <g id="Scratch">
    <path class="cls-2" d="M1571.16113,605.33887c.515-.51508.86817-.86817,1.23877-1.23877h40.27271c2.09387,8.493,1.19934,17.04052,1.30383,25.52948.10657,8.65448.04041,17.31146.01794,25.96722-.0166,6.35742.46558,12.74695-1.48291,19.35761-1.26818.10077-3.11193-.16065-4.5415,1.04559-1.49365-1.45911-3.10351.74292-4.60571-.14093-1.77759-1.046-3.40088.61822-5.24048.22205A26.51417,26.51417,0,0,0,1592.64807,676c-1.83105,0-3.66553.06989-5.49219-.02026-1.71374-.08448-3.41919-.33814-5.808-.58863-1.14038.61078-3.01025,1.48267-4.90967-.32928-1.82068,2.38067-3.41736-.01734-5.2771-.26074Z" transform="translate(-23 -19)"/>
    <path class="cls-2" d="M1572.49976,267c-.68457-.68462-1.03785-1.03789-1.39747-1.39758V196.8571a12.31814,12.31814,0,0,1,3.06263-.81976C1586.64136,195.9798,1599.118,196,1611.50049,196c.44751.44753,1.02258.75,1.11706,1.16254a35.356,35.356,0,0,1,1.32056,6.92941c.16589,7.49.06189,14.98611.06189,22.47986v36.54358c-.51514,1.03366-.85938,1.72445-1.36841,2.74582a13.90323,13.90323,0,0,1-3.63354,1.08165c-3.99036.159-7.991.05714-11.98767.05714Z" transform="translate(-23 -19)"/>
    <path class="cls-2" d="M1612.86145,347.666c-1.75146.38616-3.56958,1.404-4.588.87692-1.84522-.95523-3.55323-.30969-5.29029-.50348A45.26687,45.26687,0,0,0,1597.99194,348h-14.48706a36.77746,36.77746,0,0,1-3.99267-.03448c-1.0708-.11753-1.86621.57675-3.15967.32669-2.86072-.553-2.98193-.16782-5.24793-1.65143q0-33.55244-.001-67.24149a7.63974,7.63974,0,0,1,5.9989-2.43274c9.824.08048,19.64954-.02658,29.4729.083a36.99933,36.99933,0,0,1,6.02685,1.042c1.879,3.652,1.38147,7.58008,1.38794,11.43256q.03625,21.73054.00977,43.46124c0,2.49777.145,5.0065-.04187,7.4902C1613.78027,342.83975,1613.25562,345.17786,1612.86145,347.666Z" transform="translate(-23 -19)"/>
    <path class="cls-2" d="M1571.17065,442.32953c.50757-.50772.86084-.861,1.22181-1.222h39.44409a14.18109,14.18109,0,0,1,2.09546,7.65442c.12561,19.14987.09167,38.301.02234,57.45145-.00562,1.51193-.65772,3.02148-1.10682,4.95032a47.214,47.214,0,0,1-6.01635.7984q-14.98645.1246-29.97437.0003a42.08131,42.08131,0,0,1-5.68616-.81476Z" transform="translate(-23 -19)"/>
    <path class="cls-2" d="M1611.96814,686.17041a18.45925,18.45925,0,0,1,1.993,7.27209q.10566,28.97544-.002,57.95142a18.88292,18.88292,0,0,1-.89807,4.04736c-3.31262,1.88062-6.88343,1.55848-10.40674,1.5586q-10.49121.00045-20.98254-.00348c-3.53541-.0061-7.12464.38678-10.565-1.4812V687.3927c.34546-.34552.69873-.69879,1.22217-1.22229Z" transform="translate(-23 -19)"/>
    <path class="cls-2" d="M1612.87878,102.60635c-1.47949.48613-2.65283.87168-4.18286,1.3744-.23-.17087-.72766-.54072-1.25732-.93429-.17078.18582-.39331.42784-.60718.6605a10.39865,10.39865,0,0,0-2.60168.1521c-2.06714.449-4.29883.14094-6.4635.14094q-8.74219,0-17.4845-.00684c-.97815-.00232-2.43347.28546-2.83789-.22227-.9325-1.17057-1.50916.1994-2.21924-.03192a20.2704,20.2704,0,0,1-2.672-.78024c-.555-.27221-.91845-.93541-1.452-1.51559V34.399c.45361-.45359.80688-.80682,1.27954-1.27943H1612.606c1.855,3.59758,1.38012,7.52188,1.38574,11.37422q.0313,21.73061.0083,43.4613c0,2.49778.14368,5.00626-.04138,7.49025C1613.78247,97.81173,1613.26318,100.15254,1612.87878,102.60635Z" transform="translate(-23 -19)"/>
    <path class="cls-2" d="M1611.62769,593c-12.2356,0-24.39039.00671-36.545-.00885-1.44458-.00189-3.11462.53033-3.9895-2.0022v-66.4747c.871-1.62051,2.191-1.52984,3.54724-1.52746q18.97339.03345,37.90283.01321c1.91822,3.71637,1.44409,7.6424,1.44849,11.4964.01916,16.99231-.00623,33.98456.02258,50.97687A11.88848,11.88848,0,0,1,1611.62769,593Z" transform="translate(-23 -19)"/>
    <path class="cls-2" d="M1571.14087,768.10876c12.11511-2.149,24.15588-.71966,36.13892-1.04687,1.81726-.04962,3.657.72662,5.222,1.064,1.95923,3.6283,1.48609,7.38849,1.48975,11.08222.01831,18.121.00842,36.24206.00842,54.57745h-42.85913Z" transform="translate(-23 -19)"/>
    <path class="cls-2" d="M1612.76733,359.171c2.177,10.45468,1.02832,20.851,1.19532,31.19226.16931,10.49259.11462,20.991-.01868,31.48468-.0321,2.51807-.76367,5.02722-1.2229,7.84329-1.53272,1.43033-3.76685,1.33518-6.02771,1.32425-8.16272-.03943-16.32593-.0155-24.48889-.0155a57.90169,57.90169,0,0,1-5.99231-.04837,39.02028,39.02028,0,0,1-5.09522-1.20877v-69.36c.33411-.3341.6875-.6875,1.2118-1.21182Z" transform="translate(-23 -19)"/>
    <path class="cls-2" d="M1571.10864,184.23628V115.39079c.46167-.46153.81494-.81473,1.27954-1.2793,12.99842,0,26.10877,0,39.21912-.002.35352.35124.70679.70443,1.38843,1.38587-.58814,3.24139,1.4176,6.46385,1.07812,10.11764-.3374,3.63228-.07385,7.32042-.07385,10.98405,0,12.82274-.13025,25.64769.08936,38.46668.05664,3.30626-1.01392,6.33509-1.23462,9.53416-.02588.37572-.66236.70946-1.35486,1.40207H1601.4884c-8.15991,0-16.31982-.015-24.47973.01035C1574.90845,186.01688,1572.81128,186.13936,1571.10864,184.23628Z" transform="translate(-23 -19)"/>
  </g>
</svg>
